name kv06_filtered_grf.mot
datacolumns 37
datarows 11
range 0.519500 0.524500
endheader
time	1_ground_force_vx	1_ground_force_vy	1_ground_force_vz	1_ground_force_px	1_ground_force_py	1_ground_force_pz	1_ground_torque_x	1_ground_torque_y	1_ground_torque_z	2_ground_force_vx	2_ground_force_vy	2_ground_force_vz	2_ground_force_px	2_ground_force_py	2_ground_force_pz	2_ground_torque_x	2_ground_torque_y	2_ground_torque_z	3_ground_force_vx	3_ground_force_vy	3_ground_force_vz	3_ground_force_px	3_ground_force_py	3_ground_force_pz	3_ground_torque_x	3_ground_torque_y	3_ground_torque_z	4_ground_force_vx	4_ground_force_vy	4_ground_force_vz	4_ground_force_px	4_ground_force_py	4_ground_force_pz	4_ground_torque_x	4_ground_torque_y	4_ground_torque_z
            0.519500	            0.000001	            0.000001	            0.000002	            0.450000	            0.000000	            0.900000	           -0.000000	            0.000000	           -0.000000	            0.000000	            0.000000	            0.000000	           -0.164376	            0.000000	            0.229874	            0.000000	           -0.000000	            0.000000	           15.194476	            4.169597	            0.731078	            0.377692	            1.022632	            1.082460	           -0.098369	           -0.026994	           -0.004733	          -12.607648	           31.332091	           20.766310	           -0.421186	            1.021907	            1.081338	           -0.278211	            0.691401	            0.458247
            0.520000	            0.000001	            0.000001	            0.000002	            0.450000	            0.000000	            0.900000	           -0.000000	            0.000000	           -0.000000	            0.000000	            0.000000	            0.000000	           -0.164376	            0.000000	            0.229874	            0.000000	           -0.000000	            0.000000	           15.197377	            3.889173	            0.495946	            0.377698	            1.022631	            1.082448	           -0.092700	           -0.023723	           -0.003025	          -12.608849	           30.634971	           20.360229	           -0.421179	            1.021905	            1.081334	           -0.277108	            0.673273	            0.447462
            0.520500	            0.000001	            0.000001	            0.000001	            0.450000	            0.000000	            0.900000	           -0.000000	            0.000000	           -0.000000	            0.000000	            0.000000	            0.000000	           -0.164376	            0.000000	            0.229874	            0.000000	           -0.000000	            0.000000	           15.201774	            3.621462	            0.275619	            0.377701	            1.022631	            1.082435	           -0.087995	           -0.020963	           -0.001595	          -12.612856	           29.928996	           19.956852	           -0.421173	            1.021903	            1.081331	           -0.276106	            0.655171	            0.436872
            0.521000	            0.000001	            0.000001	            0.000001	            0.450000	            0.000000	            0.900000	           -0.000000	            0.000000	           -0.000000	            0.000000	            0.000000	            0.000000	           -0.164376	            0.000000	            0.229874	            0.000000	           -0.000000	            0.000000	           15.207739	            3.366671	            0.070399	            0.377705	            1.022630	            1.082422	           -0.084166	           -0.018632	           -0.000390	          -12.619721	           29.213768	           19.555971	           -0.421167	            1.021901	            1.081328	           -0.275196	            0.637059	            0.426453
            0.521500	            0.000001	            0.000001	            0.000001	            0.450000	            0.000000	            0.900000	           -0.000000	            0.000000	           -0.000000	            0.000000	            0.000000	            0.000000	           -0.164376	            0.000000	            0.229874	            0.000000	           -0.000000	            0.000000	           15.215334	            3.124963	           -0.119575	            0.377708	            1.022629	            1.082409	           -0.081118	           -0.016660	            0.000637	          -12.629395	           28.488945	           19.157494	           -0.421160	            1.021899	            1.081325	           -0.274364	            0.618900	            0.416181
            0.522000	            0.000001	            0.000001	            0.000001	            0.450000	            0.000000	            0.900000	           -0.000000	            0.000000	           -0.000000	            0.000000	            0.000000	            0.000000	           -0.164376	            0.000000	            0.229874	            0.000000	           -0.000000	            0.000000	           15.224607	            2.896455	           -0.294242	            0.377712	            1.022628	            1.082397	           -0.078755	           -0.014983	            0.001522	          -12.641798	           27.754302	           18.761314	           -0.421154	            1.021898	            1.081322	           -0.273595	            0.600660	            0.406034
            0.522500	            0.000001	            0.000001	            0.000001	            0.450000	            0.000000	            0.900000	           -0.000000	            0.000000	           -0.000000	            0.000000	            0.000000	            0.000000	           -0.164376	            0.000000	            0.229874	            0.000000	           -0.000000	            0.000000	           15.235590	            2.681211	           -0.453619	            0.377715	            1.022627	            1.082384	           -0.076978	           -0.013547	            0.002292	          -12.656813	           27.009735	           18.367320	           -0.421148	            1.021896	            1.081319	           -0.272870	            0.582307	            0.395984
            0.523000	            0.000000	            0.000001	            0.000001	            0.450000	            0.000000	            0.900000	           -0.000000	            0.000000	           -0.000000	            0.000000	            0.000000	            0.000000	           -0.164376	            0.000000	            0.229874	            0.000000	           -0.000000	            0.000000	           15.248304	            2.479245	           -0.597702	            0.377716	            1.022627	            1.082371	           -0.075691	           -0.012307	            0.002967	          -12.674408	           26.255057	           17.975618	           -0.421143	            1.021894	            1.081316	           -0.272173	            0.563806	            0.386012
            0.523500	            0.000000	            0.000001	            0.000001	            0.450000	            0.000000	            0.900000	           -0.000000	            0.000000	           -0.000000	            0.000000	            0.000000	            0.000000	           -0.164376	            0.000000	            0.229874	            0.000000	           -0.000000	            0.000000	           15.262745	            2.290517	           -0.726756	            0.377718	            1.022626	            1.082358	           -0.074805	           -0.011226	            0.003562	          -12.694276	           25.490639	           17.585841	           -0.421137	            1.021892	            1.081314	           -0.271476	            0.545134	            0.376085
            0.524000	            0.000000	            0.000001	            0.000001	            0.450000	            0.000000	            0.900000	           -0.000000	            0.000000	           -0.000000	           -0.000000	            0.000000	            0.000000	           -0.164376	            0.000000	            0.229874	            0.000000	           -0.000000	            0.000000	           15.278896	            2.114929	           -0.841026	            0.377719	            1.022625	            1.082346	           -0.074234	           -0.010276	            0.004086	          -12.716201	           24.716767	           17.197863	           -0.421132	            1.021890	            1.081312	           -0.270752	            0.526266	            0.366175
            0.524500	            0.000000	            0.000001	            0.000000	            0.450000	            0.000000	            0.900000	           -0.000000	            0.000000	           -0.000000	           -0.000000	            0.000000	            0.000000	           -0.164376	            0.000000	            0.229874	            0.000000	           -0.000000	            0.000000	           15.296724	            1.952333	           -0.940824	            0.377721	            1.022624	            1.082333	           -0.073905	           -0.009432	            0.004545	          -12.739931	           23.933854	           16.811562	           -0.421126	            1.021888	            1.081309	           -0.269972	            0.507182	            0.356254
